HIERARCHY
ROOT mixamorig:Hips
{
	OFFSET 0.000000 69.776680 0.000000
	CHANNELS 6 Xposition Yposition Zposition Xrotation Yrotation Zrotation
	JOINT mixamorig:Spine
	{
		OFFSET 0.000000 3.962402 -0.274300
		CHANNELS 6 Xposition Yposition Zposition Xrotation Yrotation Zrotation
		JOINT mixamorig:Spine1
		{
			OFFSET 0.000000 14.122147 -0.320033
			CHANNELS 6 Xposition Yposition Zposition Xrotation Yrotation Zrotation
			JOINT mixamorig:Spine2
			{
				OFFSET 0.000000 11.399124 -0.365735
				CHANNELS 6 Xposition Yposition Zposition Xrotation Yrotation Zrotation
				JOINT mixamorig:Neck
				{
					OFFSET 0.000000 9.938187 -0.411442
					CHANNELS 6 Xposition Yposition Zposition Xrotation Yrotation Zrotation
					JOINT mixamorig:Head
					{
						OFFSET 0.000000 8.579102 0.114200
						CHANNELS 6 Xposition Yposition Zposition Xrotation Yrotation Zrotation
						JOINT mixamorig:HeadTop_End
						{
							OFFSET 0.000000 25.089104 0.333900
							CHANNELS 6 Xposition Yposition Zposition Xrotation Yrotation Zrotation
							End Site
							{
								OFFSET 0.000000 25.091324 0.000000
							}
						}
					}
				}
				JOINT mixamorig:LeftShoulder
				{
					OFFSET 4.224100 8.888443 -0.424631
					CHANNELS 6 Xposition Yposition Zposition Xrotation Yrotation Zrotation
					JOINT mixamorig:LeftArm
					{
						OFFSET 8.606815 -2.106979 -0.026412
						CHANNELS 3 Xrotation Yrotation Zrotation
						JOINT mixamorig:LeftForeArm
						{
							OFFSET 18.975199 0.000000 0.000001
							CHANNELS 3 Xrotation Yrotation Zrotation
							JOINT mixamorig:LeftHand
							{
								OFFSET 19.896011 0.000000 0.000001
								CHANNELS 3 Xrotation Yrotation Zrotation
								JOINT mixamorig:LeftHandThumb1
								{
									OFFSET 2.354134 -1.272461 1.802826
									CHANNELS 6 Xposition Yposition Zposition Xrotation Yrotation Zrotation
									JOINT mixamorig:LeftHandThumb2
									{
										OFFSET 1.999432 -1.154373 1.154373
										CHANNELS 6 Xposition Yposition Zposition Xrotation Yrotation Zrotation
										JOINT mixamorig:LeftHandThumb3
										{
											OFFSET 2.113319 -1.220123 1.220126
											CHANNELS 6 Xposition Yposition Zposition Xrotation Yrotation Zrotation
											JOINT mixamorig:LeftHandThumb4
											{
												OFFSET 1.744274 -1.007057 1.007057
												CHANNELS 6 Xposition Yposition Zposition Xrotation Yrotation Zrotation
												End Site
												{
													OFFSET 1.605682 -1.003258 1.219047
												}
											}
										}
									}
								}
								JOINT mixamorig:LeftHandIndex1
								{
									OFFSET 7.198479 -0.169243 1.742686
									CHANNELS 6 Xposition Yposition Zposition Xrotation Yrotation Zrotation
									JOINT mixamorig:LeftHandIndex2
									{
										OFFSET 2.844902 0.000000 0.000000
										CHANNELS 6 Xposition Yposition Zposition Xrotation Yrotation Zrotation
										JOINT mixamorig:LeftHandIndex3
										{
											OFFSET 2.665497 0.000000 0.000000
											CHANNELS 6 Xposition Yposition Zposition Xrotation Yrotation Zrotation
											JOINT mixamorig:LeftHandIndex4
											{
												OFFSET 2.297401 0.000000 0.000000
												CHANNELS 6 Xposition Yposition Zposition Xrotation Yrotation Zrotation
												End Site
												{
													OFFSET 2.297401 0.000000 0.000300
												}
											}
										}
									}
								}
								JOINT mixamorig:LeftHandMiddle1
								{
									OFFSET 6.876549 0.000000 0.000000
									CHANNELS 6 Xposition Yposition Zposition Xrotation Yrotation Zrotation
									JOINT mixamorig:LeftHandMiddle2
									{
										OFFSET 3.256821 0.000000 0.000000
										CHANNELS 6 Xposition Yposition Zposition Xrotation Yrotation Zrotation
										JOINT mixamorig:LeftHandMiddle3
										{
											OFFSET 3.177902 0.000000 0.000000
											CHANNELS 6 Xposition Yposition Zposition Xrotation Yrotation Zrotation
											JOINT mixamorig:LeftHandMiddle4
											{
												OFFSET 2.695129 0.000000 0.000000
												CHANNELS 6 Xposition Yposition Zposition Xrotation Yrotation Zrotation
												End Site
												{
													OFFSET 2.695099 -0.000191 0.012399
												}
											}
										}
									}
								}
								JOINT mixamorig:LeftHandRing1
								{
									OFFSET 6.623886 -0.059456 -1.696961
									CHANNELS 6 Xposition Yposition Zposition Xrotation Yrotation Zrotation
									JOINT mixamorig:LeftHandRing2
									{
										OFFSET 2.958004 0.000000 0.000000
										CHANNELS 6 Xposition Yposition Zposition Xrotation Yrotation Zrotation
										JOINT mixamorig:LeftHandRing3
										{
											OFFSET 2.756901 0.000000 0.000000
											CHANNELS 6 Xposition Yposition Zposition Xrotation Yrotation Zrotation
											JOINT mixamorig:LeftHandRing4
											{
												OFFSET 2.334602 0.000000 0.000000
												CHANNELS 6 Xposition Yposition Zposition Xrotation Yrotation Zrotation
												End Site
												{
													OFFSET 2.334602 -0.000031 0.001500
												}
											}
										}
									}
								}
								JOINT mixamorig:LeftHandPinky1
								{
									OFFSET 6.046967 -0.139206 -3.244337
									CHANNELS 6 Xposition Yposition Zposition Xrotation Yrotation Zrotation
									JOINT mixamorig:LeftHandPinky2
									{
										OFFSET 2.623703 0.000000 0.000000
										CHANNELS 6 Xposition Yposition Zposition Xrotation Yrotation Zrotation
										JOINT mixamorig:LeftHandPinky3
										{
											OFFSET 2.132103 0.000000 0.000000
											CHANNELS 6 Xposition Yposition Zposition Xrotation Yrotation Zrotation
											JOINT mixamorig:LeftHandPinky4
											{
												OFFSET 1.793213 0.000000 0.000000
												CHANNELS 6 Xposition Yposition Zposition Xrotation Yrotation Zrotation
												End Site
												{
													OFFSET 1.793198 0.000099 -0.007099
												}
											}
										}
									}
								}
							}
						}
					}
				}
				JOINT mixamorig:RightShoulder
				{
					OFFSET -4.224100 8.888435 -0.398208
					CHANNELS 6 Xposition Yposition Zposition Xrotation Yrotation Zrotation
					JOINT mixamorig:RightArm
					{
						OFFSET -8.606817 -2.106972 0.026400
						CHANNELS 3 Xrotation Yrotation Zrotation
						JOINT mixamorig:RightForeArm
						{
							OFFSET -18.973604 0.000000 -0.000000
							CHANNELS 3 Xrotation Yrotation Zrotation
							JOINT mixamorig:RightHand
							{
								OFFSET -19.898298 0.000000 -0.000000
								CHANNELS 3 Xrotation Yrotation Zrotation
								JOINT mixamorig:RightHandThumb1
								{
									OFFSET -2.342537 -1.287621 1.805296
									CHANNELS 6 Xposition Yposition Zposition Xrotation Yrotation Zrotation
									JOINT mixamorig:RightHandThumb2
									{
										OFFSET -1.998871 -1.154045 1.154048
										CHANNELS 6 Xposition Yposition Zposition Xrotation Yrotation Zrotation
										JOINT mixamorig:RightHandThumb3
										{
											OFFSET -2.115639 -1.221466 1.221465
											CHANNELS 6 Xposition Yposition Zposition Xrotation Yrotation Zrotation
											JOINT mixamorig:RightHandThumb4
											{
												OFFSET -1.745159 -1.007568 1.007568
												CHANNELS 6 Xposition Yposition Zposition Xrotation Yrotation Zrotation
												End Site
												{
													OFFSET -1.638237 -1.006813 1.174085
												}
											}
										}
									}
								}
								JOINT mixamorig:RightHandIndex1
								{
									OFFSET -7.289619 -0.160568 1.788511
									CHANNELS 6 Xposition Yposition Zposition Xrotation Yrotation Zrotation
									JOINT mixamorig:RightHandIndex2
									{
										OFFSET -2.816299 0.000000 -0.000000
										CHANNELS 6 Xposition Yposition Zposition Xrotation Yrotation Zrotation
										JOINT mixamorig:RightHandIndex3
										{
											OFFSET -2.639603 0.000000 -0.000000
											CHANNELS 6 Xposition Yposition Zposition Xrotation Yrotation Zrotation
											JOINT mixamorig:RightHandIndex4
											{
												OFFSET -2.241501 0.000000 -0.000000
												CHANNELS 6 Xposition Yposition Zposition Xrotation Yrotation Zrotation
												End Site
												{
													OFFSET -2.241501 0.000000 -0.000300
												}
											}
										}
									}
								}
								JOINT mixamorig:RightHandMiddle1
								{
									OFFSET -7.060406 0.000000 -0.000000
									CHANNELS 6 Xposition Yposition Zposition Xrotation Yrotation Zrotation
									JOINT mixamorig:RightHandMiddle2
									{
										OFFSET -3.340210 0.000000 0.000000
										CHANNELS 6 Xposition Yposition Zposition Xrotation Yrotation Zrotation
										JOINT mixamorig:RightHandMiddle3
										{
											OFFSET -3.056713 0.000000 0.000000
											CHANNELS 6 Xposition Yposition Zposition Xrotation Yrotation Zrotation
											JOINT mixamorig:RightHandMiddle4
											{
												OFFSET -2.639503 0.000000 0.000000
												CHANNELS 6 Xposition Yposition Zposition Xrotation Yrotation Zrotation
												End Site
												{
													OFFSET -2.639503 -0.000008 0.000600
												}
											}
										}
									}
								}
								JOINT mixamorig:RightHandRing1
								{
									OFFSET -6.774601 0.049789 -1.636027
									CHANNELS 6 Xposition Yposition Zposition Xrotation Yrotation Zrotation
									JOINT mixamorig:RightHandRing2
									{
										OFFSET -2.923901 0.000000 0.000000
										CHANNELS 6 Xposition Yposition Zposition Xrotation Yrotation Zrotation
										JOINT mixamorig:RightHandRing3
										{
											OFFSET -2.718002 0.000000 0.000000
											CHANNELS 6 Xposition Yposition Zposition Xrotation Yrotation Zrotation
											JOINT mixamorig:RightHandRing4
											{
												OFFSET -2.379601 0.000000 0.000000
												CHANNELS 6 Xposition Yposition Zposition Xrotation Yrotation Zrotation
												End Site
												{
													OFFSET -2.379601 0.000000 -0.000300
												}
											}
										}
									}
								}
								JOINT mixamorig:RightHandPinky1
								{
									OFFSET -6.148533 -0.175697 -3.130196
									CHANNELS 6 Xposition Yposition Zposition Xrotation Yrotation Zrotation
									JOINT mixamorig:RightHandPinky2
									{
										OFFSET -2.627903 0.000000 0.000000
										CHANNELS 6 Xposition Yposition Zposition Xrotation Yrotation Zrotation
										JOINT mixamorig:RightHandPinky3
										{
											OFFSET -2.122501 0.000000 0.000000
											CHANNELS 6 Xposition Yposition Zposition Xrotation Yrotation Zrotation
											JOINT mixamorig:RightHandPinky4
											{
												OFFSET -1.792004 0.000000 0.000000
												CHANNELS 6 Xposition Yposition Zposition Xrotation Yrotation Zrotation
												End Site
												{
													OFFSET -1.792000 0.000046 -0.004500
												}
											}
										}
									}
								}
							}
						}
					}
				}
			}
		}
	}
	JOINT mixamorig:LeftUpLeg
	{
		OFFSET 7.557000 -4.826302 0.300500
		CHANNELS 6 Xposition Yposition Zposition Xrotation Yrotation Zrotation
		JOINT mixamorig:LeftLeg
		{
			OFFSET 0.315538 -24.058289 0.537030
			CHANNELS 6 Xposition Yposition Zposition Xrotation Yrotation Zrotation
			JOINT mixamorig:LeftFoot
			{
				OFFSET -0.315538 -33.061485 0.084935
				CHANNELS 6 Xposition Yposition Zposition Xrotation Yrotation Zrotation
				JOINT mixamorig:LeftToeBase
				{
					OFFSET 0.092043 -7.483322 10.511632
					CHANNELS 6 Xposition Yposition Zposition Xrotation Yrotation Zrotation
					JOINT mixamorig:LeftToe_End
					{
						OFFSET 0.082187 -0.046743 6.420126
						CHANNELS 6 Xposition Yposition Zposition Xrotation Yrotation Zrotation
						End Site
						{
							OFFSET 0.096298 -0.054795 6.419865
						}
					}
				}
			}
		}
	}
	JOINT mixamorig:RightUpLeg
	{
		OFFSET -7.557000 -4.826302 0.300500
		CHANNELS 6 Xposition Yposition Zposition Xrotation Yrotation Zrotation
		JOINT mixamorig:RightLeg
		{
			OFFSET -0.315556 -24.058254 0.712177
			CHANNELS 6 Xposition Yposition Zposition Xrotation Yrotation Zrotation
			JOINT mixamorig:RightFoot
			{
				OFFSET 0.315562 -33.061455 0.096916
				CHANNELS 6 Xposition Yposition Zposition Xrotation Yrotation Zrotation
				JOINT mixamorig:RightToeBase
				{
					OFFSET -0.092061 -7.483409 10.296515
					CHANNELS 6 Xposition Yposition Zposition Xrotation Yrotation Zrotation
					JOINT mixamorig:RightToe_End
					{
						OFFSET -0.082209 -0.046778 6.411424
						CHANNELS 6 Xposition Yposition Zposition Xrotation Yrotation Zrotation
						End Site
						{
							OFFSET -0.096323 -0.054825 6.411163
						}
					}
				}
			}
		}
	}
}
MOTION
Frames: 3
Frame Time: 0.033333
-50.020859 62.646858 -5.144354 20.841125 19.597560 -4.227454 -0.000001 3.962408 -0.274302 21.287442 -11.320385 8.914818 -0.000002 14.122148 -0.320032 -1.054459 -1.755678 1.914138 0.000002 11.399131 -0.365743 -1.004039 -1.661491 2.049355 0.000003 9.938206 -0.411448 -9.379729 1.093793 -1.085312 0.000005 8.579103 0.114198 -25.374525 5.784384 -5.773561 0.000000 25.089104 0.333902 0.000000 0.000001 0.000000 4.224105 8.888465 -0.424636 0.539744 -2.974848 10.362188 -37.652832 -16.200126 -18.189190 0.000021 -78.673698 0.000002 24.410782 -20.424115 27.379005 2.354135 -1.272466 1.802810 -1.450440 5.393444 10.146051 1.999432 -1.154363 1.154379 2.880037 4.462505 -0.097811 2.113322 -1.220125 1.220126 -0.631417 1.522974 2.614060 1.744274 -1.007063 1.007063 0.000001 -0.000003 0.000000 7.198469 -0.169239 1.742680 4.498895 -10.331399 27.096168 2.844892 -0.000009 -0.000002 2.939107 5.644540 -54.983795 2.665486 0.000005 0.000003 1.050706 3.660937 -32.017823 2.297406 -0.000027 -0.000006 -0.000001 -0.000001 -0.000002 6.876551 -0.000002 -0.000012 1.999971 -8.588084 14.172160 3.256825 -0.000007 0.000010 1.305088 4.038491 -35.805105 3.177900 0.000003 0.000000 0.550373 2.702061 -23.021337 2.695118 0.000012 -0.000004 -0.000002 -0.000002 -0.000002 6.623888 -0.059430 -1.696970 -0.028333 -6.173579 -0.636092 2.958011 -0.000001 0.000004 0.275548 1.932020 -16.231678 2.756902 -0.000005 -0.000010 0.082548 1.065175 -8.862784 2.334598 -0.000001 0.000004 -0.000000 -0.000001 0.000002 6.046961 -0.139205 -3.244346 0.437944 2.786411 -11.928944 2.623694 -0.000001 0.000001 -0.018116 -4.056642 -0.491202 2.132102 0.000005 -0.000003 0.006110 -0.290525 2.408041 1.793205 -0.000001 0.000005 0.000001 -0.000002 0.000000 -4.224095 8.888445 -0.398206 0.256797 -0.281125 -0.670724 -7.529655 -38.427539 31.762255 -0.000032 56.590740 0.000027 -5.351519 2.308696 -12.387170 -2.342546 -1.287619 1.805295 -8.097281 7.512692 -1.594783 -1.998882 -1.154044 1.154044 11.199737 -27.701116 -2.513049 -2.115646 -1.221466 1.221468 -0.203532 -2.405279 -2.566489 -1.745170 -1.007580 1.007572 0.000003 0.000001 -0.000005 -7.289633 -0.160571 1.788511 0.922731 5.904268 -9.593327 -2.816291 -0.000004 -0.000005 2.820474 -5.594053 53.486115 -2.639607 0.000009 0.000001 0.830681 -3.300749 28.244939 -2.241500 0.000007 -0.000003 -0.000000 -0.000000 -0.000000 -7.060405 0.000007 0.000001 -0.090341 4.493137 1.416905 -3.340215 0.000012 -0.000003 1.311367 -4.069034 35.713294 -3.056692 0.000006 0.000001 -0.277886 -2.655901 20.075408 -2.639499 0.000006 -0.000000 -0.000000 0.000000 0.000002 -6.774616 0.049790 -1.636029 -0.948621 2.808473 14.707426 -2.923893 0.000005 -0.000002 0.292339 -1.998755 16.640716 -2.717991 -0.000031 -0.000001 -0.873329 -0.996030 7.212147 -2.379593 -0.000025 0.000001 -0.000001 -0.000000 -0.000000 -6.148533 -0.175696 -3.130196 -0.422652 -0.724519 25.941504 -2.627908 -0.000005 -0.000003 0.000004 -0.000177 0.001474 -2.122494 0.000003 0.000000 0.008753 0.349603 -2.869961 -1.792007 0.000005 -0.000001 -0.000000 0.000001 0.000002 7.557001 -4.826303 0.300498 -14.528178 9.053204 -0.632641 0.315533 -24.058292 0.537032 52.913872 -3.543566 7.826568 -0.315536 -33.061485 0.084938 4.331662 -5.343950 -12.451128 0.092043 -7.483321 10.511626 -26.322827 -1.467146 8.477323 0.082192 -0.046744 6.420126 0.000000 -0.000000 -0.000001 -7.556997 -4.826310 0.300500 -66.369105 -1.058832 -18.698801 -0.315557 -24.058245 0.712178 49.309212 2.777881 6.506667 0.315559 -33.061455 0.096918 5.227797 -6.356339 3.422839 -0.092062 -7.483408 10.296514 -11.462814 -0.000003 0.000000 -0.082208 -0.046778 6.411420 0.000000 -0.000000 -0.000000 
-50.452648 63.018738 -6.143251 20.509873 22.158332 -6.261891 -0.000007 3.962404 -0.274304 19.848084 -12.552453 10.070136 0.000005 14.122143 -0.320038 -1.630180 -2.227457 2.788742 -0.000001 11.399117 -0.365737 -1.561618 -2.118569 2.940009 -0.000003 9.938198 -0.411454 -8.749576 1.185831 -0.822421 -0.000007 8.579107 0.114199 -20.361433 6.138072 -5.281560 -0.000001 25.089104 0.333900 0.000000 0.000000 -0.000000 4.224097 8.888452 -0.424643 0.660771 -3.744264 8.896442 -35.837835 -18.371850 -20.130700 0.000093 -85.902688 0.000048 25.615547 -20.849204 25.556722 2.354126 -1.272484 1.802823 -1.449382 5.020321 9.534461 1.999438 -1.154373 1.154381 3.079863 5.049627 0.047350 2.113326 -1.220120 1.220127 -0.550229 1.647182 2.582718 1.744278 -1.007057 1.007059 0.000001 -0.000003 0.000000 7.198479 -0.169246 1.742685 4.441931 -10.651431 25.723911 2.844886 0.000010 0.000010 2.971174 5.666756 -55.309144 2.665494 -0.000026 0.000006 1.107171 3.749561 -32.891691 2.297404 -0.000003 -0.000012 0.000002 -0.000000 -0.000001 6.876547 -0.000012 0.000002 1.810741 -8.711461 12.463762 3.256809 0.000015 -0.000004 1.328057 4.070050 -36.129809 3.177906 -0.000008 0.000006 0.576002 2.761505 -23.559010 2.695124 -0.000006 0.000000 -0.000002 -0.000003 -0.000001 6.623882 -0.059450 -1.696959 -0.260022 -6.024267 -2.798334 2.958009 -0.000000 -0.000003 0.283598 1.959454 -16.468802 2.756917 0.000003 -0.000000 0.085465 1.083701 -9.018256 2.334603 -0.000006 0.000002 -0.000001 0.000001 -0.000001 6.046955 -0.139216 -3.244334 0.574869 3.090239 -14.543481 2.623703 0.000008 0.000001 -0.018108 -4.056134 -0.495516 2.132107 -0.000021 0.000000 0.006764 -0.305825 2.535011 1.793204 -0.000000 -0.000001 0.000001 -0.000000 0.000001 -4.224103 8.888418 -0.398218 0.276444 -0.227935 -0.241960 -4.699125 -40.013372 34.811890 -0.000020 58.712060 -0.000002 -3.185540 4.677100 -12.496693 -2.342545 -1.287623 1.805295 -7.543398 6.289828 -2.593734 -1.998874 -1.154043 1.154044 9.997680 -24.231737 -2.314579 -2.115643 -1.221471 1.221466 -0.720731 -1.235040 -2.412324 -1.745156 -1.007569 1.007567 0.000003 -0.000003 0.000000 -7.289626 -0.160561 1.788513 0.632180 6.341250 -5.709181 -2.816291 0.000006 0.000000 3.212228 -5.862486 57.409543 -2.639610 0.000007 -0.000001 1.261192 -3.998486 34.999979 -2.241501 0.000007 0.000002 -0.000000 -0.000000 0.000000 -7.060406 0.000012 0.000000 -0.488599 4.718821 5.856582 -3.340219 0.000001 -0.000003 1.521747 -4.345987 38.580204 -3.056703 -0.000001 0.000003 -0.220952 -3.321771 24.733566 -2.639488 0.000016 -0.000001 -0.000000 -0.000000 -0.000000 -6.774596 0.049786 -1.636025 -1.416388 2.755597 19.998922 -2.923898 0.000000 0.000002 0.345276 -2.167893 18.096776 -2.717998 -0.000018 -0.000001 -1.075457 -1.332338 9.366414 -2.379606 -0.000023 -0.000001 -0.000001 0.000000 -0.000001 -6.148531 -0.175696 -3.130196 -0.539229 -1.132970 32.099717 -2.627906 -0.000005 -0.000001 0.000005 -0.000069 0.000572 -2.122509 0.000018 -0.000000 0.007337 0.320050 -2.627137 -1.792009 0.000008 -0.000001 0.000001 0.000002 0.000003 7.556996 -4.826305 0.300497 -10.128082 10.065362 -0.243274 0.315535 -24.058290 0.537028 49.176139 -6.316010 6.926438 -0.315538 -33.061485 0.084938 4.080948 -4.053244 -10.575558 0.092037 -7.483325 10.511626 -23.076518 -1.798850 10.016352 0.082190 -0.046741 6.420125 -0.000000 -0.000000 0.000001 -7.557004 -4.826300 0.300500 -62.446350 -0.622141 -15.884281 -0.315552 -24.058250 0.712177 45.557293 -2.317669 4.306601 0.315564 -33.061459 0.096918 4.281576 -3.171937 5.436491 -0.092062 -7.483408 10.296513 -9.720679 -0.000000 -0.000001 -0.082200 -0.046778 6.411418 0.000001 -0.000000 -0.000000 
-50.798698 63.233650 -7.209194 20.111403 24.618724 -8.146458 -0.000002 3.962403 -0.274300 18.308868 -14.119583 11.074901 -0.000002 14.122138 -0.320029 -1.362209 -2.507897 3.446801 0.000006 11.399135 -0.365739 -1.274089 -2.395302 3.584486 -0.000000 9.938186 -0.411441 -8.277350 1.323890 -0.652282 0.000004 8.579105 0.114193 -16.941731 6.776361 -4.967839 0.000000 25.089088 0.333898 -0.000000 0.000000 -0.000000 4.224101 8.888446 -0.424631 0.656193 -3.847058 8.158561 -34.286006 -21.413915 -21.723900 -0.000013 -92.746142 0.000168 27.227490 -20.880380 24.252458 2.354127 -1.272458 1.802823 -1.219658 5.209068 9.146926 1.999424 -1.154370 1.154370 2.940710 4.688017 0.000779 2.113317 -1.220116 1.220130 -0.646050 1.467906 2.592793 1.744279 -1.007058 1.007057 -0.000001 -0.000007 -0.000003 7.198470 -0.169228 1.742691 4.433992 -10.965755 24.760071 2.844911 0.000003 0.000001 2.973650 5.668473 -55.334224 2.665493 -0.000010 -0.000004 1.118164 3.766475 -33.059434 2.297407 -0.000019 -0.000004 0.000002 -0.000002 0.000001 6.876540 -0.000004 0.000006 1.714073 -8.905279 11.409371 3.256806 0.000005 -0.000001 1.333723 4.077793 -36.209623 3.177899 -0.000017 0.000001 0.579913 2.770471 -23.640077 2.695116 -0.000004 0.000006 0.000003 0.000000 -0.000001 6.623880 -0.059438 -1.696957 -0.393948 -6.059923 -3.990308 2.958006 0.000005 -0.000006 0.286258 1.968426 -16.546523 2.756902 0.000020 -0.000010 0.085336 1.082904 -9.011469 2.334603 0.000000 -0.000002 0.000000 0.000001 -0.000000 6.046953 -0.139201 -3.244331 0.627540 3.163264 -15.884949 2.623705 -0.000003 0.000003 -0.018099 -4.056169 -0.495209 2.132100 0.000007 0.000003 0.007125 -0.313796 2.601195 1.793213 -0.000000 -0.000005 0.000001 -0.000001 0.000000 -4.224099 8.888416 -0.398210 0.294999 -0.172010 0.171549 -2.021243 -41.210366 37.846461 -0.000016 60.340514 0.000002 -1.303873 6.571384 -12.702189 -2.342536 -1.287632 1.805295 -7.436105 5.738970 -3.391174 -1.998884 -1.154029 1.154050 10.064431 -24.803535 -2.578304 -2.115649 -1.221462 1.221472 -0.672916 -1.216229 -2.311687 -1.745158 -1.007563 1.007565 0.000005 -0.000004 -0.000003 -7.289625 -0.160562 1.788510 0.558564 6.716718 -4.614095 -2.816276 -0.000020 0.000004 3.528028 -6.051744 60.451648 -2.639614 0.000004 -0.000001 1.701902 -4.562017 40.899671 -2.241498 0.000005 -0.000002 -0.000002 -0.000001 -0.000001 -7.060413 0.000011 -0.000001 -0.672268 4.923614 7.515241 -3.340207 0.000009 -0.000000 1.686032 -4.543689 40.699660 -3.056699 0.000006 0.000003 -0.088890 -3.894854 28.822241 -2.639487 0.000000 0.000003 -0.000002 -0.000000 -0.000000 -6.774604 0.049779 -1.636028 -1.655538 2.731941 22.396755 -2.923910 0.000018 -0.000004 0.385448 -2.287050 19.130202 -2.718003 -0.000007 0.000005 -1.181560 -1.633843 11.287344 -2.379606 -0.000031 -0.000000 -0.000001 0.000001 0.000003 -6.148517 -0.175695 -3.130196 -0.579424 -1.375483 35.184709 -2.627900 0.000004 -0.000000 -0.000006 -0.000041 0.000293 -2.122507 0.000012 0.000001 0.006022 0.289968 -2.380163 -1.791999 0.000006 -0.000000 0.000001 -0.000001 -0.000003 7.556999 -4.826302 0.300499 -6.025865 10.860936 0.286455 0.315537 -24.058283 0.537035 45.322024 -8.111479 6.567721 -0.315534 -33.061489 0.084938 3.067586 -3.182963 -9.226756 0.092046 -7.483319 10.511634 -21.479152 -2.175327 10.592674 0.082183 -0.046742 6.420126 -0.000003 0.000000 -0.000001 -7.557002 -4.826301 0.300501 -59.198827 -0.586519 -13.971786 -0.315550 -24.058249 0.712179 42.198432 -5.599386 2.966340 0.315566 -33.061462 0.096917 3.352797 -1.894341 5.545497 -0.092056 -7.483410 10.296513 -8.137721 0.000003 0.000001 -0.082213 -0.046778 6.411416 0.000000 0.000001 -0.000000 
